<?xml version="1.0" encoding="utf-8"?>
<!-- Generator: Adobe Illustrator 17.0.0, SVG Export Plug-In . SVG Version: 6.00 Build 0)  -->
<!DOCTYPE svg PUBLIC "-//W3C//DTD SVG 1.1//EN" "http://www.w3.org/Graphics/SVG/1.1/DTD/svg11.dtd">
<svg version="1.1" id="Capa_1" xmlns="http://www.w3.org/2000/svg" xmlns:xlink="http://www.w3.org/1999/xlink" x="0px" y="0px"
	 width="144px" height="90px" viewBox="0 0 144 90" enable-background="new 0 0 144 90" xml:space="preserve">
<g>
	<g>
		<g>
			<path fill="#263746" d="M1.969,70.216l0.177-0.947c0.493,0.328,1.205,0.557,1.822,0.557c0.81,0,1.232-0.31,1.232-0.894
				c0-0.788-1.1-1.035-2.015-1.593c-0.617-0.372-1.101-0.796-1.101-1.637c0-1.142,0.863-1.744,2.183-1.744
				c0.633,0,1.364,0.169,1.866,0.425l-0.237,0.885c-0.432-0.221-1.021-0.372-1.55-0.372c-0.651,0-1.065,0.24-1.065,0.788
				c0,0.744,1.223,1.001,2.13,1.603c0.538,0.354,0.924,0.788,0.924,1.574c0,1.391-1.057,1.894-2.332,1.894
				C3.123,70.755,2.401,70.49,1.969,70.216z"/>
			<path fill="#263746" d="M7.947,63.596c0.387,0,0.669,0.265,0.669,0.646c0,0.38-0.282,0.646-0.669,0.646
				c-0.414,0-0.669-0.266-0.669-0.646C7.278,63.87,7.533,63.596,7.947,63.596z M7.383,65.888H8.51v4.788H7.383V65.888z"/>
			<path fill="#263746" d="M11.125,70.755c-0.608,0-1.312-0.177-1.655-0.371l0.132-0.761c0.379,0.178,1.022,0.354,1.549,0.354
				c0.512,0,0.933-0.132,0.933-0.645c0-0.903-2.544-0.496-2.544-2.098c0-0.947,0.775-1.425,1.928-1.425
				c0.608,0,1.223,0.15,1.514,0.274l-0.168,0.77c-0.316-0.132-0.871-0.265-1.338-0.265c-0.502,0-0.836,0.194-0.836,0.592
				c0,0.832,2.518,0.469,2.518,2.107C13.158,70.314,12.243,70.755,11.125,70.755z"/>
			<path fill="#263746" d="M13.714,65.888h0.774l0.221-1.177h0.871v1.177h1.47l-0.079,0.788h-1.382v2.469
				c0,0.408,0.115,0.69,0.572,0.69c0.247,0,0.581-0.071,0.934-0.213l0.14,0.841c-0.52,0.213-0.994,0.292-1.408,0.292
				c-0.986,0-1.356-0.512-1.356-1.495v-2.584h-0.757V65.888z"/>
			<path fill="#263746" d="M22.041,70.419c-0.457,0.204-1.082,0.336-1.734,0.336c-1.268,0-2.465-0.637-2.465-2.398
				c0-1.895,1.082-2.549,2.297-2.549c1.365,0,2.016,0.788,2.016,2.08c0,0.115,0,0.247-0.009,0.363h-3.16v0.186
				c0,1.071,0.633,1.478,1.478,1.478c0.467,0,1.03-0.124,1.461-0.275L22.041,70.419z M21.117,67.685
				c0-0.832-0.388-1.141-0.951-1.141c-0.572,0-1.047,0.336-1.144,1.141H21.117z"/>
			<path fill="#263746" d="M23.142,65.888h0.942l0.114,0.628l0.062,0.009c0.528-0.514,0.994-0.717,1.566-0.717
				c0.634,0,1.066,0.274,1.304,0.752h0.061c0.546-0.54,1.109-0.752,1.655-0.752c1.074,0,1.557,0.7,1.557,1.823v3.045h-1.126v-2.886
				c0-0.726-0.256-1.08-0.793-1.08c-0.432,0-0.88,0.222-1.145,0.602v3.364h-1.126v-2.886c0-0.726-0.256-1.08-0.784-1.08
				c-0.431,0-0.906,0.275-1.161,0.655v3.311h-1.127V65.888z"/>
			<path fill="#263746" d="M36.004,70.56c-0.326,0.124-0.661,0.195-0.916,0.195c-0.484,0-0.704-0.212-0.774-0.637L34.269,70.1
				c-0.519,0.435-0.924,0.655-1.505,0.655c-0.783,0-1.452-0.565-1.452-1.398c0-0.663,0.379-0.938,1.1-1.123
				c0.607-0.15,1.392-0.31,1.866-0.434v-0.292c0-0.566-0.22-0.875-0.933-0.875c-0.511,0-1.065,0.177-1.576,0.424l-0.228-0.717
				c0.581-0.328,1.321-0.531,1.893-0.531c0.977,0,1.972,0.265,1.972,1.744v2.053c0,0.185,0.026,0.327,0.256,0.327
				c0.131,0,0.236-0.008,0.29-0.017L36.004,70.56z M33.187,69.994c0.343,0,0.747-0.194,1.091-0.558v-1.061
				c-0.431,0.089-0.968,0.222-1.294,0.318c-0.3,0.08-0.528,0.195-0.528,0.566C32.457,69.685,32.782,69.994,33.187,69.994z"/>
			<path fill="#263746" d="M40.308,68.216v2.461h-1.17v-6.639h2.165c1.506,0,2.254,0.762,2.254,1.983c0,1.319-0.81,2.23-2.623,2.23
				C40.731,68.251,40.502,68.242,40.308,68.216z M40.308,67.287c0.159,0.026,0.352,0.035,0.528,0.035c0.978,0,1.55-0.301,1.55-1.265
				c0-0.824-0.537-1.107-1.347-1.107h-0.731V67.287z"/>
			<path fill="#263746" d="M48.663,70.676h-0.889l-0.167-0.567L47.546,70.1c-0.467,0.426-0.986,0.655-1.549,0.655
				c-0.951,0-1.594-0.708-1.594-1.752v-3.115h1.127v2.922c0,0.681,0.317,1.106,0.863,1.106c0.422,0,0.881-0.31,1.144-0.593v-3.434
				h1.127V70.676z M45.82,64.976l1.153-2.009l0.881,0.496l-1.568,1.743L45.82,64.976z"/>
			<path fill="#263746" d="M49.869,63.861h1.127v1.637l-0.026,0.947l0.044,0.017c0.318-0.309,0.713-0.654,1.382-0.654
				c1.241,0,1.91,1.088,1.91,2.39c0,1.584-0.731,2.557-2.297,2.557c-0.502,0-1.039-0.062-1.611-0.345l-0.185,0.266h-0.344V63.861z
				 M50.997,67.287v2.443c0.291,0.141,0.625,0.22,0.897,0.22c0.925,0,1.268-0.734,1.268-1.699c0-0.929-0.387-1.602-1.021-1.602
				C51.683,66.649,51.278,66.915,50.997,67.287z"/>
			<path fill="#263746" d="M55.293,63.861h1.117v6.815h-1.117V63.861z"/>
			<path fill="#263746" d="M58.146,63.596c0.386,0,0.669,0.265,0.669,0.646c0,0.38-0.283,0.646-0.669,0.646
				c-0.414,0-0.669-0.266-0.669-0.646C57.477,63.87,57.732,63.596,58.146,63.596z M57.583,65.888h1.126v4.788h-1.126V65.888z"/>
			<path fill="#263746" d="M59.712,68.357c0-1.38,0.459-2.549,2.228-2.549c0.493,0,1.118,0.124,1.513,0.301l-0.167,0.868
				c-0.316-0.151-0.819-0.275-1.188-0.275c-0.872,0-1.241,0.567-1.241,1.629c0,0.938,0.379,1.531,1.32,1.531
				c0.423,0,0.925-0.123,1.241-0.239l0.142,0.815c-0.388,0.186-1.004,0.318-1.594,0.318C60.592,70.755,59.712,69.968,59.712,68.357z
				"/>
			<path fill="#263746" d="M64.141,68.295c0-1.601,0.818-2.487,2.332-2.487c1.523,0,2.324,0.867,2.324,2.487
				c0,1.761-0.951,2.46-2.333,2.46C65.091,70.755,64.141,70.03,64.141,68.295z M67.653,68.295c0-1.222-0.484-1.655-1.18-1.655
				c-0.704,0-1.188,0.425-1.188,1.664c0,1.106,0.458,1.628,1.188,1.628C67.213,69.932,67.653,69.42,67.653,68.295z"/>
			<path fill="#263746" d="M71.896,68.375c0-1.726,0.898-2.567,2.237-2.567c0.475,0,0.836,0.107,1.064,0.186v-2.133h1.1v6.815
				h-0.881l-0.158-0.593l-0.054-0.009c-0.334,0.345-0.747,0.681-1.425,0.681C72.547,70.755,71.896,69.667,71.896,68.375z
				 M75.197,69.287v-2.443c-0.291-0.142-0.616-0.221-0.888-0.221c-0.96,0-1.268,0.788-1.268,1.708c0,0.965,0.422,1.593,1.013,1.593
				C74.511,69.924,74.924,69.65,75.197,69.287z"/>
			<path fill="#263746" d="M81.536,70.419c-0.457,0.204-1.082,0.336-1.734,0.336c-1.268,0-2.464-0.637-2.464-2.398
				c0-1.895,1.082-2.549,2.297-2.549c1.365,0,2.017,0.788,2.017,2.08c0,0.115,0,0.247-0.009,0.363h-3.16v0.186
				c0,1.071,0.634,1.478,1.478,1.478c0.467,0,1.031-0.124,1.462-0.275L81.536,70.419z M80.611,67.685
				c0-0.832-0.387-1.141-0.951-1.141c-0.572,0-1.047,0.336-1.144,1.141H80.611z"/>
			<path fill="#263746" d="M89.987,70.676c-0.167,0.044-0.422,0.079-0.607,0.079c-0.388,0-0.634-0.07-0.872-0.345
				c-0.291-0.318-0.977-1.398-1.47-2.363h-0.898v2.629H84.97v-6.639h2.007c1.47,0,2.271,0.647,2.271,1.912
				c0,0.877-0.344,1.399-1.127,1.771c0.255,0.46,0.695,1.247,1.188,1.876c0.211,0.265,0.378,0.301,0.571,0.301h0.106V70.676z
				 M86.141,67.162h0.545c0.855,0,1.382-0.318,1.382-1.159c0-0.761-0.465-1.053-1.284-1.053h-0.643V67.162z"/>
			<path fill="#263746" d="M95.234,70.56c-0.326,0.124-0.66,0.195-0.916,0.195c-0.484,0-0.704-0.212-0.775-0.637L93.5,70.1
				c-0.519,0.435-0.924,0.655-1.505,0.655c-0.783,0-1.453-0.565-1.453-1.398c0-0.663,0.379-0.938,1.1-1.123
				c0.608-0.15,1.392-0.31,1.867-0.434v-0.292c0-0.566-0.22-0.875-0.934-0.875c-0.51,0-1.065,0.177-1.575,0.424l-0.23-0.717
				c0.581-0.328,1.321-0.531,1.893-0.531c0.976,0,1.972,0.265,1.972,1.744v2.053c0,0.185,0.026,0.327,0.254,0.327
				c0.132,0,0.238-0.008,0.291-0.017L95.234,70.56z M92.417,69.994c0.344,0,0.749-0.194,1.092-0.558v-1.061
				c-0.431,0.089-0.969,0.222-1.294,0.318c-0.299,0.08-0.528,0.195-0.528,0.566C91.687,69.685,92.012,69.994,92.417,69.994z"/>
			<path fill="#263746" d="M95.763,68.375c0-1.726,0.898-2.567,2.236-2.567c0.476,0,0.836,0.107,1.065,0.186v-2.133h1.101v6.815
				h-0.88l-0.159-0.593l-0.052-0.009c-0.334,0.345-0.748,0.681-1.427,0.681C96.415,70.755,95.763,69.667,95.763,68.375z
				 M99.064,69.287v-2.443c-0.29-0.142-0.616-0.221-0.889-0.221c-0.959,0-1.267,0.788-1.267,1.708c0,0.965,0.423,1.593,1.012,1.593
				C98.378,69.924,98.791,69.65,99.064,69.287z"/>
			<path fill="#263746" d="M101.908,63.596c0.387,0,0.668,0.265,0.668,0.646c0,0.38-0.281,0.646-0.668,0.646
				c-0.415,0-0.67-0.266-0.67-0.646C101.238,63.87,101.493,63.596,101.908,63.596z M101.345,65.888h1.127v4.788h-1.127V65.888z"/>
			<path fill="#263746" d="M103.475,68.295c0-1.601,0.819-2.487,2.333-2.487c1.523,0,2.324,0.867,2.324,2.487
				c0,1.761-0.95,2.46-2.333,2.46C104.426,70.755,103.475,70.03,103.475,68.295z M106.987,68.295c0-1.222-0.484-1.655-1.179-1.655
				c-0.704,0-1.188,0.425-1.188,1.664c0,1.106,0.457,1.628,1.188,1.628C106.547,69.932,106.987,69.42,106.987,68.295z"/>
			<path fill="#263746" d="M108.942,68.375c0-1.726,0.898-2.567,2.236-2.567c0.475,0,0.836,0.107,1.065,0.186v-2.133h1.1v6.815
				h-0.88l-0.158-0.593l-0.053-0.009c-0.335,0.345-0.749,0.681-1.425,0.681C109.593,70.755,108.942,69.667,108.942,68.375z
				 M112.243,69.287v-2.443c-0.29-0.142-0.617-0.221-0.89-0.221c-0.959,0-1.267,0.788-1.267,1.708c0,0.965,0.422,1.593,1.012,1.593
				C111.557,69.924,111.969,69.65,112.243,69.287z"/>
			<path fill="#263746" d="M115.087,63.596c0.388,0,0.669,0.265,0.669,0.646c0,0.38-0.281,0.646-0.669,0.646
				c-0.414,0-0.669-0.266-0.669-0.646C114.417,63.87,114.673,63.596,115.087,63.596z M114.523,65.888h1.127v4.788h-1.127V65.888z"/>
			<path fill="#263746" d="M116.443,65.888h0.756v-0.345c0-1.363,0.669-1.726,1.646-1.726c0.414,0,0.828,0.08,1.145,0.195
				l-0.176,0.779c-0.202-0.07-0.537-0.141-0.765-0.141c-0.475,0-0.731,0.203-0.731,0.867v0.372h1.259l-0.097,0.788h-1.163v4.001
				h-1.127v-4.001h-0.747V65.888z"/>
			<path fill="#263746" d="M124.621,70.676h-0.889l-0.167-0.567l-0.062-0.009c-0.466,0.426-0.986,0.655-1.549,0.655
				c-0.951,0-1.593-0.708-1.593-1.752v-3.115h1.127v2.922c0,0.681,0.318,1.106,0.862,1.106c0.423,0,0.881-0.31,1.145-0.593v-3.434
				h1.127V70.676z"/>
			<path fill="#263746" d="M127.261,70.755c-0.607,0-1.312-0.177-1.655-0.371l0.132-0.761c0.378,0.178,1.021,0.354,1.549,0.354
				c0.511,0,0.934-0.132,0.934-0.645c0-0.903-2.544-0.496-2.544-2.098c0-0.947,0.775-1.425,1.927-1.425
				c0.608,0,1.225,0.15,1.515,0.274l-0.167,0.77c-0.318-0.132-0.872-0.265-1.339-0.265c-0.502,0-0.837,0.194-0.837,0.592
				c0,0.832,2.518,0.469,2.518,2.107C129.294,70.314,128.38,70.755,127.261,70.755z"/>
			<path fill="#263746" d="M130.81,63.596c0.387,0,0.668,0.265,0.668,0.646c0,0.38-0.281,0.646-0.668,0.646
				c-0.414,0-0.669-0.266-0.669-0.646C130.141,63.87,130.396,63.596,130.81,63.596z M130.247,65.888h1.126v4.788h-1.126V65.888z"/>
			<path fill="#263746" d="M132.376,68.295c0-1.601,0.819-2.487,2.332-2.487c1.524,0,2.324,0.867,2.324,2.487
				c0,1.761-0.951,2.46-2.333,2.46C133.327,70.755,132.376,70.03,132.376,68.295z M135.889,68.295c0-1.222-0.485-1.655-1.18-1.655
				c-0.704,0-1.188,0.425-1.188,1.664c0,1.106,0.459,1.628,1.188,1.628C135.448,69.932,135.889,69.42,135.889,68.295z
				 M133.89,64.976l1.153-2.009l0.88,0.496l-1.567,1.743L133.89,64.976z"/>
			<path fill="#263746" d="M138.064,65.888h0.941l0.123,0.62l0.062,0.008c0.485-0.469,0.986-0.708,1.576-0.708
				c0.986,0,1.532,0.654,1.532,1.805v3.062h-1.127v-2.886c0-0.761-0.291-1.08-0.81-1.08c-0.457,0-0.898,0.283-1.171,0.638v3.328
				h-1.126V65.888z"/>
			<path fill="#263746" d="M28.279,78.997c0-1.726,0.898-2.567,2.236-2.567c0.475,0,0.836,0.107,1.065,0.186v-2.132h1.1v6.814h-0.88
				l-0.159-0.593l-0.053-0.008c-0.335,0.345-0.748,0.681-1.426,0.681C28.93,81.377,28.279,80.289,28.279,78.997z M31.58,79.908
				v-2.443c-0.291-0.142-0.616-0.221-0.89-0.221c-0.959,0-1.267,0.788-1.267,1.708c0,0.965,0.422,1.593,1.012,1.593
				C30.894,80.545,31.307,80.272,31.58,79.908z"/>
			<path fill="#263746" d="M37.918,81.041c-0.457,0.203-1.083,0.336-1.735,0.336c-1.266,0-2.464-0.637-2.464-2.399
				c0-1.893,1.082-2.549,2.298-2.549c1.364,0,2.015,0.788,2.015,2.081c0,0.114,0,0.248-0.009,0.363h-3.161v0.185
				c0,1.072,0.634,1.478,1.479,1.478c0.466,0,1.029-0.122,1.462-0.273L37.918,81.041z M36.994,78.306
				c0-0.832-0.387-1.141-0.951-1.141c-0.573,0-1.047,0.336-1.144,1.141H36.994z"/>
			<path fill="#263746" d="M39.019,74.483h1.118v6.814h-1.118V74.483z"/>
			<path fill="#263746" d="M43.677,74.66h3.617v0.911h-2.447v1.956h1.866l-0.115,0.832h-1.752v2.027h2.5v0.911h-3.671V74.66z"/>
			<path fill="#263746" d="M49.812,81.377c-0.607,0-1.312-0.177-1.654-0.371l0.132-0.762c0.378,0.177,1.021,0.354,1.549,0.354
				c0.511,0,0.933-0.132,0.933-0.646c0-0.903-2.543-0.495-2.543-2.097c0-0.947,0.775-1.425,1.927-1.425
				c0.608,0,1.224,0.151,1.515,0.275l-0.167,0.77c-0.316-0.132-0.872-0.265-1.338-0.265c-0.502,0-0.836,0.195-0.836,0.593
				c0,0.832,2.518,0.469,2.518,2.107C51.846,80.935,50.931,81.377,49.812,81.377z"/>
			<path fill="#263746" d="M52.401,76.509h0.775l0.22-1.177h0.871v1.177h1.47l-0.079,0.788h-1.382v2.469
				c0,0.407,0.114,0.69,0.572,0.69c0.246,0,0.581-0.07,0.933-0.213l0.141,0.841c-0.52,0.212-0.995,0.292-1.409,0.292
				c-0.986,0-1.356-0.513-1.356-1.495v-2.585h-0.757V76.509z"/>
			<path fill="#263746" d="M61.266,81.183c-0.326,0.124-0.66,0.195-0.915,0.195c-0.485,0-0.705-0.213-0.775-0.637l-0.044-0.018
				c-0.519,0.434-0.925,0.655-1.505,0.655c-0.784,0-1.453-0.566-1.453-1.398c0-0.664,0.379-0.938,1.1-1.123
				c0.608-0.152,1.392-0.311,1.867-0.434V78.13c0-0.567-0.221-0.876-0.934-0.876c-0.51,0-1.065,0.176-1.576,0.424l-0.228-0.717
				c0.58-0.327,1.32-0.532,1.891-0.532c0.978,0,1.972,0.266,1.972,1.744v2.054c0,0.187,0.027,0.328,0.255,0.328
				c0.132,0,0.238-0.009,0.291-0.019L61.266,81.183z M58.449,80.616c0.344,0,0.748-0.195,1.092-0.557v-1.062
				c-0.431,0.089-0.969,0.22-1.294,0.318c-0.3,0.079-0.528,0.195-0.528,0.567C57.718,80.306,58.043,80.616,58.449,80.616z"/>
			<path fill="#263746" d="M61.794,78.997c0-1.726,0.898-2.567,2.236-2.567c0.475,0,0.837,0.107,1.065,0.186v-2.132h1.1v6.814h-0.88
				l-0.158-0.593l-0.054-0.008c-0.334,0.345-0.748,0.681-1.426,0.681C62.446,81.377,61.794,80.289,61.794,78.997z M65.095,79.908
				v-2.443c-0.29-0.142-0.616-0.221-0.889-0.221c-0.96,0-1.267,0.788-1.267,1.708c0,0.965,0.422,1.593,1.012,1.593
				C64.409,80.545,64.823,80.272,65.095,79.908z"/>
			<path fill="#263746" d="M67.235,78.917c0-1.601,0.819-2.487,2.333-2.487c1.523,0,2.323,0.868,2.323,2.487
				c0,1.762-0.95,2.461-2.332,2.461C68.185,81.377,67.235,80.652,67.235,78.917z M70.747,78.917c0-1.221-0.484-1.654-1.179-1.654
				c-0.704,0-1.188,0.424-1.188,1.664c0,1.106,0.457,1.628,1.188,1.628C70.308,80.555,70.747,80.041,70.747,78.917z"/>
			<path fill="#263746" d="M82.402,81.297h-1.117l-0.246-4.734h-0.044c-0.643,1.54-1.717,3.761-1.946,4.222l-0.564,0.079
				c-0.395-0.876-1.118-2.585-2.007-4.328h-0.044l-0.168,4.761h-1.1l0.273-6.637h1.205c0.995,1.858,1.954,4.106,2.13,4.531h0.044
				c0.379-0.735,1.329-2.833,1.972-4.531h1.259L82.402,81.297z"/>
			<path fill="#263746" d="M87.597,81.041c-0.458,0.203-1.082,0.336-1.735,0.336c-1.268,0-2.464-0.637-2.464-2.399
				c0-1.893,1.082-2.549,2.297-2.549c1.364,0,2.016,0.788,2.016,2.081c0,0.114,0,0.248-0.009,0.363h-3.161v0.185
				c0,1.072,0.633,1.478,1.478,1.478c0.467,0,1.031-0.122,1.461-0.273L87.597,81.041z M86.672,78.306
				c0-0.832-0.387-1.141-0.951-1.141c-0.573,0-1.047,0.336-1.144,1.141H86.672z"/>
			<path fill="#263746" d="M91.612,78.758c0.422,0.673,0.554,0.885,0.951,1.434c0.185,0.222,0.36,0.336,0.625,0.344v0.761
				c-0.132,0.027-0.344,0.045-0.52,0.045c-0.449,0-0.652-0.142-1.022-0.629c-0.326-0.442-0.545-0.814-0.845-1.292h-0.044
				c-0.238,0.355-0.607,0.947-1.171,1.876h-1.215c0.731-1.149,1.364-2.062,1.638-2.46c-0.326-0.495-0.511-0.787-0.845-1.239
				c-0.203-0.275-0.397-0.354-0.565-0.354v-0.735c0.167-0.009,0.3-0.017,0.45-0.017c0.485,0,0.686,0.097,1.047,0.611
				c0.282,0.407,0.467,0.708,0.713,1.088h0.044c0.159-0.265,0.546-0.858,1.003-1.682h1.198
				C92.483,77.457,91.857,78.395,91.612,78.758z"/>
			<path fill="#263746" d="M94.648,74.217c0.387,0,0.669,0.266,0.669,0.646c0,0.381-0.282,0.646-0.669,0.646
				c-0.413,0-0.669-0.265-0.669-0.646C93.98,74.492,94.235,74.217,94.648,74.217z M94.086,76.509h1.127v4.788h-1.127V76.509z"/>
			<path fill="#263746" d="M96.216,78.979c0-1.38,0.458-2.549,2.228-2.549c0.493,0,1.118,0.125,1.514,0.302l-0.167,0.867
				c-0.318-0.15-0.82-0.275-1.189-0.275c-0.872,0-1.241,0.567-1.241,1.629c0,0.939,0.379,1.531,1.32,1.531
				c0.423,0,0.924-0.124,1.241-0.24l0.141,0.815c-0.387,0.185-1.004,0.318-1.594,0.318C97.096,81.377,96.216,80.59,96.216,78.979z"
				/>
			<path fill="#263746" d="M105.442,81.183c-0.326,0.124-0.661,0.195-0.916,0.195c-0.484,0-0.704-0.213-0.774-0.637l-0.045-0.018
				c-0.518,0.434-0.924,0.655-1.504,0.655c-0.784,0-1.453-0.566-1.453-1.398c0-0.664,0.379-0.938,1.101-1.123
				c0.608-0.152,1.39-0.311,1.866-0.434V78.13c0-0.567-0.221-0.876-0.933-0.876c-0.51,0-1.066,0.176-1.576,0.424l-0.228-0.717
				c0.581-0.327,1.319-0.532,1.892-0.532c0.977,0,1.972,0.266,1.972,1.744v2.054c0,0.187,0.027,0.328,0.255,0.328
				c0.132,0,0.238-0.009,0.291-0.019L105.442,81.183z M102.625,80.616c0.343,0,0.748-0.195,1.092-0.557v-1.062
				c-0.432,0.089-0.968,0.22-1.294,0.318c-0.299,0.079-0.528,0.195-0.528,0.567C101.894,80.306,102.219,80.616,102.625,80.616z"/>
			<path fill="#263746" d="M106.243,76.509h0.942l0.123,0.619l0.062,0.009c0.483-0.469,0.985-0.708,1.576-0.708
				c0.985,0,1.531,0.656,1.531,1.807v3.061h-1.126v-2.885c0-0.761-0.291-1.079-0.81-1.079c-0.457,0-0.898,0.283-1.17,0.638v3.327
				h-1.127V76.509z"/>
			<path fill="#263746" d="M111.429,78.917c0-1.601,0.818-2.487,2.332-2.487c1.523,0,2.324,0.868,2.324,2.487
				c0,1.762-0.951,2.461-2.333,2.461C112.379,81.377,111.429,80.652,111.429,78.917z M114.94,78.917c0-1.221-0.484-1.654-1.18-1.654
				c-0.704,0-1.188,0.424-1.188,1.664c0,1.106,0.457,1.628,1.188,1.628C114.501,80.555,114.94,80.041,114.94,78.917z"/>
		</g>
	</g>
	<g>
		<path fill="#263746" d="M110.296,25.646h-1.744v5.474h1.492c2.787,0,4.488-0.239,4.488-2.918
			C114.532,25.668,112.976,25.646,110.296,25.646z"/>
		<path fill="#263746" d="M70.929,25.646h-2.063v6.539c0,0.072,1.067,0.108,1.719,0.108c3.294,0,5.023-0.536,5.023-3.613
			C75.608,25.892,73.679,25.646,70.929,25.646z"/>
		<path fill="#263746" d="M111.75,8.176c-8.172,0-15.4,4.02-19.829,10.186C87.492,12.196,80.263,8.176,72.092,8.176
			s-15.4,4.02-19.829,10.186c-4.429-6.166-11.658-10.186-19.83-10.186c-13.478,0-24.405,10.927-24.405,24.405
			c0,13.479,10.927,24.405,24.405,24.405c8.171,0,15.401-4.02,19.83-10.186c4.43,6.166,11.658,10.186,19.829,10.186
			s15.4-4.02,19.829-10.186c4.43,6.166,11.658,10.186,19.829,10.186c13.479,0,24.405-10.926,24.405-24.405
			C136.155,19.102,125.229,8.176,111.75,8.176z M32.371,46.773c-3.728,0-7.167-0.978-9.448-2.318l1.014-5.357
			c2.099,1.304,5.321,2.389,8.144,2.389c2.534,0,4.054-0.833,4.054-2.534c0-2.39-3.909-3.113-7.456-5.068
			c-2.896-1.593-5.359-3.294-5.359-7.276c0-5.249,3.946-7.783,10.064-7.783c2.642,0,6.118,0.688,8.434,1.774l-1.23,5.068
			c-1.774-0.833-4.489-1.485-6.734-1.485c-2.172,0-3.475,0.689-3.475,2.281c0,2.245,4.706,3.077,8.398,5.322
			c2.317,1.412,4.018,3.186,4.018,6.625C42.798,44.637,37.946,46.773,32.371,46.773z M71.2,37.614c-0.796,0-2.334-0.036-2.334-0.072
			v8.632h-8.211v-27.37h11.867c6.805,0,10.072,3.505,10.072,8.826C82.594,33.494,78.766,37.614,71.2,37.614z M123.606,46.375
			c-1.369,0.217-2.092,0.399-3.107,0.399c-1.809,0-2.983-0.239-4.25-1.615c-1.231-1.376-3.418-5.828-5.373-8.565h-2.324v9.58h-6.843
			v-27.37h9.637c6.589,0,10.172,2.962,10.172,8.392c0,3.692-1.448,5.861-4.307,7.417c0.904,1.557,2.424,3.514,3.981,5.469
			c0.869,0.941,1.593,0.618,2.462,0.618h-0.049V46.375z"/>
	</g>
</g>
</svg>
